<mxfile host="app.diagrams.net" modified="2023-06-29T13:48:56.591Z" agent="Mozilla/5.0 (Windows NT 10.0; Win64; x64) AppleWebKit/537.36 (KHTML, like Gecko) Chrome/114.0.0.0 Safari/537.36" etag="lxJ7m6NbgWYpj08oTUc0" version="21.5.2" type="github">
  <diagram id="C5RBs43oDa-KdzZeNtuy" name="Page-1">
    <mxGraphModel dx="1615" dy="832" grid="1" gridSize="10" guides="1" tooltips="1" connect="1" arrows="1" fold="1" page="1" pageScale="1" pageWidth="827" pageHeight="1169" background="none" math="0" shadow="0">
      <root>
        <mxCell id="WIyWlLk6GJQsqaUBKTNV-0" />
        <mxCell id="WIyWlLk6GJQsqaUBKTNV-1" parent="WIyWlLk6GJQsqaUBKTNV-0" />
        <mxCell id="bT58S_uSXyJ6-u2FryXD-13" style="edgeStyle=orthogonalEdgeStyle;rounded=0;orthogonalLoop=1;jettySize=auto;html=1;" edge="1" parent="WIyWlLk6GJQsqaUBKTNV-1" source="WIyWlLk6GJQsqaUBKTNV-3" target="bT58S_uSXyJ6-u2FryXD-6">
          <mxGeometry relative="1" as="geometry" />
        </mxCell>
        <mxCell id="bT58S_uSXyJ6-u2FryXD-14" style="edgeStyle=orthogonalEdgeStyle;rounded=0;orthogonalLoop=1;jettySize=auto;html=1;exitX=0.5;exitY=1;exitDx=0;exitDy=0;" edge="1" parent="WIyWlLk6GJQsqaUBKTNV-1" source="WIyWlLk6GJQsqaUBKTNV-3" target="bT58S_uSXyJ6-u2FryXD-3">
          <mxGeometry relative="1" as="geometry" />
        </mxCell>
        <mxCell id="bT58S_uSXyJ6-u2FryXD-15" style="edgeStyle=orthogonalEdgeStyle;rounded=0;orthogonalLoop=1;jettySize=auto;html=1;" edge="1" parent="WIyWlLk6GJQsqaUBKTNV-1" source="WIyWlLk6GJQsqaUBKTNV-3" target="bT58S_uSXyJ6-u2FryXD-5">
          <mxGeometry relative="1" as="geometry" />
        </mxCell>
        <mxCell id="WIyWlLk6GJQsqaUBKTNV-3" value="Scene() Proceed" style="rounded=1;whiteSpace=wrap;html=1;fontSize=12;glass=0;strokeWidth=1;shadow=0;fillColor=#dae8fc;strokeColor=#6c8ebf;" parent="WIyWlLk6GJQsqaUBKTNV-1" vertex="1">
          <mxGeometry x="420" y="260" width="120" height="40" as="geometry" />
        </mxCell>
        <mxCell id="bT58S_uSXyJ6-u2FryXD-22" style="edgeStyle=orthogonalEdgeStyle;rounded=0;orthogonalLoop=1;jettySize=auto;html=1;exitX=0;exitY=1;exitDx=0;exitDy=0;" edge="1" parent="WIyWlLk6GJQsqaUBKTNV-1" source="bT58S_uSXyJ6-u2FryXD-3" target="bT58S_uSXyJ6-u2FryXD-21">
          <mxGeometry relative="1" as="geometry" />
        </mxCell>
        <mxCell id="bT58S_uSXyJ6-u2FryXD-3" value="Button() Register" style="ellipse;whiteSpace=wrap;html=1;fillColor=#d5e8d4;strokeColor=#82b366;" vertex="1" parent="WIyWlLk6GJQsqaUBKTNV-1">
          <mxGeometry x="320" y="390" width="120" height="80" as="geometry" />
        </mxCell>
        <mxCell id="bT58S_uSXyJ6-u2FryXD-24" style="edgeStyle=orthogonalEdgeStyle;rounded=0;orthogonalLoop=1;jettySize=auto;html=1;exitX=1;exitY=1;exitDx=0;exitDy=0;" edge="1" parent="WIyWlLk6GJQsqaUBKTNV-1" source="bT58S_uSXyJ6-u2FryXD-5" target="bT58S_uSXyJ6-u2FryXD-23">
          <mxGeometry relative="1" as="geometry" />
        </mxCell>
        <mxCell id="bT58S_uSXyJ6-u2FryXD-5" value="Button() Login" style="ellipse;whiteSpace=wrap;html=1;fillColor=#d5e8d4;strokeColor=#82b366;" vertex="1" parent="WIyWlLk6GJQsqaUBKTNV-1">
          <mxGeometry x="520" y="390" width="120" height="80" as="geometry" />
        </mxCell>
        <mxCell id="bT58S_uSXyJ6-u2FryXD-16" style="edgeStyle=orthogonalEdgeStyle;rounded=0;orthogonalLoop=1;jettySize=auto;html=1;" edge="1" parent="WIyWlLk6GJQsqaUBKTNV-1" source="bT58S_uSXyJ6-u2FryXD-6" target="bT58S_uSXyJ6-u2FryXD-9">
          <mxGeometry relative="1" as="geometry" />
        </mxCell>
        <mxCell id="bT58S_uSXyJ6-u2FryXD-6" value="Button() Quit" style="ellipse;whiteSpace=wrap;html=1;fillColor=#d5e8d4;strokeColor=#82b366;" vertex="1" parent="WIyWlLk6GJQsqaUBKTNV-1">
          <mxGeometry x="170" y="240" width="120" height="80" as="geometry" />
        </mxCell>
        <mxCell id="bT58S_uSXyJ6-u2FryXD-9" value="Quit()" style="rhombus;whiteSpace=wrap;html=1;fillColor=#f8cecc;strokeColor=#b85450;" vertex="1" parent="WIyWlLk6GJQsqaUBKTNV-1">
          <mxGeometry width="80" height="80" as="geometry" />
        </mxCell>
        <mxCell id="bT58S_uSXyJ6-u2FryXD-19" value="" style="edgeStyle=orthogonalEdgeStyle;rounded=0;orthogonalLoop=1;jettySize=auto;html=1;" edge="1" parent="WIyWlLk6GJQsqaUBKTNV-1" source="bT58S_uSXyJ6-u2FryXD-11" target="bT58S_uSXyJ6-u2FryXD-18">
          <mxGeometry relative="1" as="geometry" />
        </mxCell>
        <mxCell id="bT58S_uSXyJ6-u2FryXD-11" value="Start()" style="triangle;whiteSpace=wrap;html=1;fillColor=#f8cecc;strokeColor=#b85450;" vertex="1" parent="WIyWlLk6GJQsqaUBKTNV-1">
          <mxGeometry x="450" width="60" height="80" as="geometry" />
        </mxCell>
        <mxCell id="bT58S_uSXyJ6-u2FryXD-20" value="" style="edgeStyle=orthogonalEdgeStyle;rounded=0;orthogonalLoop=1;jettySize=auto;html=1;" edge="1" parent="WIyWlLk6GJQsqaUBKTNV-1" source="bT58S_uSXyJ6-u2FryXD-18" target="WIyWlLk6GJQsqaUBKTNV-3">
          <mxGeometry relative="1" as="geometry" />
        </mxCell>
        <mxCell id="bT58S_uSXyJ6-u2FryXD-18" value="Scene() TitleScene" style="rounded=1;whiteSpace=wrap;html=1;fillColor=#dae8fc;strokeColor=#6c8ebf;" vertex="1" parent="WIyWlLk6GJQsqaUBKTNV-1">
          <mxGeometry x="420" y="140" width="120" height="60" as="geometry" />
        </mxCell>
        <mxCell id="bT58S_uSXyJ6-u2FryXD-32" style="edgeStyle=orthogonalEdgeStyle;rounded=0;orthogonalLoop=1;jettySize=auto;html=1;exitX=0.5;exitY=1;exitDx=0;exitDy=0;entryX=0.595;entryY=0.021;entryDx=0;entryDy=0;entryPerimeter=0;" edge="1" parent="WIyWlLk6GJQsqaUBKTNV-1" source="bT58S_uSXyJ6-u2FryXD-21" target="bT58S_uSXyJ6-u2FryXD-28">
          <mxGeometry relative="1" as="geometry" />
        </mxCell>
        <mxCell id="bT58S_uSXyJ6-u2FryXD-35" style="edgeStyle=orthogonalEdgeStyle;rounded=0;orthogonalLoop=1;jettySize=auto;html=1;" edge="1" parent="WIyWlLk6GJQsqaUBKTNV-1" source="bT58S_uSXyJ6-u2FryXD-21" target="bT58S_uSXyJ6-u2FryXD-33">
          <mxGeometry relative="1" as="geometry" />
        </mxCell>
        <mxCell id="bT58S_uSXyJ6-u2FryXD-40" style="edgeStyle=orthogonalEdgeStyle;rounded=0;orthogonalLoop=1;jettySize=auto;html=1;" edge="1" parent="WIyWlLk6GJQsqaUBKTNV-1" source="bT58S_uSXyJ6-u2FryXD-21" target="bT58S_uSXyJ6-u2FryXD-37">
          <mxGeometry relative="1" as="geometry" />
        </mxCell>
        <mxCell id="bT58S_uSXyJ6-u2FryXD-21" value="Scene() Register" style="rounded=1;whiteSpace=wrap;html=1;fillColor=#dae8fc;strokeColor=#6c8ebf;" vertex="1" parent="WIyWlLk6GJQsqaUBKTNV-1">
          <mxGeometry x="150" y="510" width="120" height="60" as="geometry" />
        </mxCell>
        <mxCell id="bT58S_uSXyJ6-u2FryXD-23" value="Scene() Login" style="rounded=1;whiteSpace=wrap;html=1;fillColor=#dae8fc;strokeColor=#6c8ebf;" vertex="1" parent="WIyWlLk6GJQsqaUBKTNV-1">
          <mxGeometry x="620" y="524" width="120" height="60" as="geometry" />
        </mxCell>
        <mxCell id="bT58S_uSXyJ6-u2FryXD-39" style="edgeStyle=orthogonalEdgeStyle;rounded=0;orthogonalLoop=1;jettySize=auto;html=1;" edge="1" parent="WIyWlLk6GJQsqaUBKTNV-1" source="bT58S_uSXyJ6-u2FryXD-28" target="bT58S_uSXyJ6-u2FryXD-37">
          <mxGeometry relative="1" as="geometry" />
        </mxCell>
        <mxCell id="bT58S_uSXyJ6-u2FryXD-28" value="List" style="swimlane;fontStyle=0;childLayout=stackLayout;horizontal=1;startSize=30;horizontalStack=0;resizeParent=1;resizeParentMax=0;resizeLast=0;collapsible=1;marginBottom=0;whiteSpace=wrap;html=1;fillColor=#d5e8d4;strokeColor=#82b366;" vertex="1" parent="WIyWlLk6GJQsqaUBKTNV-1">
          <mxGeometry x="120" y="630" width="140" height="120" as="geometry" />
        </mxCell>
        <mxCell id="bT58S_uSXyJ6-u2FryXD-29" value="Name:" style="text;strokeColor=none;fillColor=none;align=left;verticalAlign=middle;spacingLeft=4;spacingRight=4;overflow=hidden;points=[[0,0.5],[1,0.5]];portConstraint=eastwest;rotatable=0;whiteSpace=wrap;html=1;" vertex="1" parent="bT58S_uSXyJ6-u2FryXD-28">
          <mxGeometry y="30" width="140" height="30" as="geometry" />
        </mxCell>
        <mxCell id="bT58S_uSXyJ6-u2FryXD-30" value="Password:" style="text;strokeColor=none;fillColor=none;align=left;verticalAlign=middle;spacingLeft=4;spacingRight=4;overflow=hidden;points=[[0,0.5],[1,0.5]];portConstraint=eastwest;rotatable=0;whiteSpace=wrap;html=1;" vertex="1" parent="bT58S_uSXyJ6-u2FryXD-28">
          <mxGeometry y="60" width="140" height="30" as="geometry" />
        </mxCell>
        <mxCell id="bT58S_uSXyJ6-u2FryXD-31" value="E-Mail:" style="text;strokeColor=none;fillColor=none;align=left;verticalAlign=middle;spacingLeft=4;spacingRight=4;overflow=hidden;points=[[0,0.5],[1,0.5]];portConstraint=eastwest;rotatable=0;whiteSpace=wrap;html=1;" vertex="1" parent="bT58S_uSXyJ6-u2FryXD-28">
          <mxGeometry y="90" width="140" height="30" as="geometry" />
        </mxCell>
        <mxCell id="bT58S_uSXyJ6-u2FryXD-36" style="edgeStyle=orthogonalEdgeStyle;rounded=0;orthogonalLoop=1;jettySize=auto;html=1;" edge="1" parent="WIyWlLk6GJQsqaUBKTNV-1" source="bT58S_uSXyJ6-u2FryXD-33" target="WIyWlLk6GJQsqaUBKTNV-3">
          <mxGeometry relative="1" as="geometry" />
        </mxCell>
        <mxCell id="bT58S_uSXyJ6-u2FryXD-33" value="Button() Return" style="rounded=1;whiteSpace=wrap;html=1;fillColor=#d5e8d4;strokeColor=#82b366;" vertex="1" parent="WIyWlLk6GJQsqaUBKTNV-1">
          <mxGeometry x="60" y="340" width="120" height="60" as="geometry" />
        </mxCell>
        <mxCell id="bT58S_uSXyJ6-u2FryXD-37" value="Button() Confirm" style="ellipse;whiteSpace=wrap;html=1;fillColor=#d5e8d4;strokeColor=#82b366;" vertex="1" parent="WIyWlLk6GJQsqaUBKTNV-1">
          <mxGeometry x="290" y="830" width="120" height="80" as="geometry" />
        </mxCell>
      </root>
    </mxGraphModel>
  </diagram>
</mxfile>
